<svg xmlns="http://www.w3.org/2000/svg" viewBox="0 0 1215.209 1463.22">
    <defs>
        <style>
            path{
                fill: #111111;
                stroke: #999999;
                stroke-width: 5px;
                transition: all 0.5s;
            }
            svg:hover path{
                fill: #eeeeee;
            }
        </style>
    </defs>
    <g>
        <path d="M462.031,1463.092q-.031.453-.031.908H437q0-.436-.041-.87a4.434,4.434,0,0,1,3.539-1.572c5.989-.29,11.983-.28,17.973,0A4.547,4.547,0,0,1,462.031,1463.092Z"></path>
        <path d="M1215.1,800.973a3.324,3.324,0,0,1,.9.027v8a1.091,1.091,0,0,1-1.535-.4C1213.41,805.955,1213,803.359,1215.1,800.973Z"></path>
        <path d="M1215.152,808.97a3.089,3.089,0,0,1,.848.03v6l-1.017-.01C1213.385,812.937,1213.29,810.926,1215.152,808.97Z"></path>
        <path d="M1215.152,808.97q-.084,3.01-.169,6.02c-1.859,13.485-3.973,26.941-5.478,40.466-.871,7.827-4.884,14.841-5.18,22.74a115.678,115.678,0,0,1-3.1,21.588c-3.99,17.328-8.842,34.474-12.314,51.9-3.1,15.575-7.856,30.625-12.092,45.86-2.385,8.579-3.365,17.538-5.437,26.217-4.586,19.221-11.009,37.914-16.674,56.826-3.519,11.747-8.687,22.836-12.762,34.339-6.481,18.3-15.264,35.51-23.6,52.956a472.009,472.009,0,0,1-41.782,71.462c-.814,1.138-1.783,2.409-3.105,2.238-4.306-.554-9.035,1.056-12.9-1.4-11.113-7.057-24.083-8.975-36.1-13.5-14.348-5.4-29.726-7.011-44.315-11.362-16.023-4.78-31.955-9.93-48.034-14.539a251.745,251.745,0,0,0-29.79-6.889,170.784,170.784,0,0,1-22.735-5.032c-9.74-2.955-19.706-2.052-29.481-3.66-5.367-.883-10.667-2.259-16-3.2-11.24-1.982-22.619-2.888-33.836-5.27-13.063-2.773-26.422-4.373-39.76-5.925-8.632-1-17.3-3.077-26.019-3.517-12.9-.651-25.292-4.726-38.327-4.673-10.257.041-20.507-1.8-30.785-2.313-16.266-.805-32.438-3.137-48.791-2.656-6.746.2-13.381-1.644-20.241-1.619-6.585.025-13.22-.289-19.836-.392a482.231,482.231,0,0,0-69.087,3.842c-15.7,2.021-31.5,2.755-47.208,5.243-17.034,2.7-33.94,5.562-50.475,10.291-18.137,5.187-34.179,14.86-50.366,24.3a101.284,101.284,0,0,0-34.1,32.025c-7.346,11.128-10.835,23.906-14.369,36.678-3.414,12.336-4.8,24.824-3.233,37.353,1.112,8.894,3.259,17.738,8.123,25.753,7.666,12.63,15.06,25.44,24.309,36.986a111.74,111.74,0,0,0,39.552,31.383c15.294,7.247,31.141,13.592,47.56,17.786a111.667,111.667,0,0,0,22.476,3.663c10.072.456,19.95,3.016,30.14,3.06,20.123.086,40.282.232,60.275-1.875,18.675-1.968,37.147-5.753,55.722-8.588,15.128-2.309,29.027-8.576,43.832-11.629,11.4-2.353,22.687-5.089,33.348-9.749,14.77-6.456,28.558-14.62,40.589-25.491,4-3.617,9.44-5.357,12.752-9.9a1.853,1.853,0,0,1,2.712.107,2.406,2.406,0,0,1,.286,3.214,43.116,43.116,0,0,1-4.144,5.583c-14.342,15.827-30.035,30.111-48.2,41.489-14.59,9.139-28.91,18.938-45.162,24.887-18.378,6.729-37.055,12.643-56.361,16.323-7.793,1.486-15.509,3.4-23.215,5.3a145.11,145.11,0,0,1-20.148,3.05c-13.01,1.326-25.915,3.663-39.016,4.087-10.39.337-20.749,1.064-31.073,2.279l-25.072.038c-9.315-2.205-18.77-1.7-28.2-1.382-3.7.125-7.115-1.272-10.713-1.752-17.584-2.346-34.606-7.375-51.823-11.511-11.7-2.812-23.571-5.239-34.729-9.6-12.306-4.808-24.515-9.912-36.386-15.974-12.055-6.154-21.8-15.665-34.077-21.248a7.95,7.95,0,0,1-3.612-3.351c-3.405-6.831-9.823-10.763-15.028-15.8-11.271-10.9-20.313-23.194-25.869-37.933a22.037,22.037,0,0,0-1.013-2.277,103.542,103.542,0,0,1-10.735-34.05,253.548,253.548,0,0,1-1.761-43.947c.839-19.846,8.2-38.079,12.857-56.994,3.016-12.251,10.684-22.012,16.352-32.8,7.407-14.1,16.122-27.378,27.954-38.521,13.03-12.272,25.483-25.094,39.673-36.152,15.312-11.932,31.652-22.216,47.952-32.654,16.011-10.252,33.877-15.766,51.592-21.848,15.677-5.382,31.62-9.809,47.646-13.964,7.692-1.994,15.427-3.894,23.232-5.354,3.775-.706,4.833-2.42,4.951-6.007.908-27.793.7-55.589.415-83.385-.177-17.143-.335-34.3-.164-51.426.492-49.274.224-98.547.526-147.819.088-14.42-.925-28.855-.567-43.262.431-17.318.412-34.63.406-51.944q-.033-101.436-.172-202.872c-.01-17.969.157-35.938.179-53.907,0-2.16.45-3.91,2.36-5.135,17.035-10.928,33.717-22.409,51.2-32.639,8.613-5.041,16.538-11.015,24.52-17.017,10.741-8.076,20.643-17.129,31.218-25.389,12.876-10.059,25.425-20.562,36.812-32.53,13.27-13.947,27.6-26.962,40.118-41.587,14.563-17.007,30.705-32.707,43.3-51.38q7.024-10.413,14.21-20.717c.918-1.319,1.826-3.068,3.783-2.867,1.7.175,2.131,1.788,2.769,3.177A50.459,50.459,0,0,0,722,179.352c7.786,5.754,13.538,13.579,20.326,20.341,11.855,11.809,25.448,21.225,39.553,29.808,5.732,3.487,13.086,4.583,18.848,8.409,9.759,6.478,20.617,10.607,31.088,15.58,14.586,6.927,30.237,10.472,45.671,14.8,9.785,2.743,19.883,3.441,29.7,5.766,13.147,3.115,26.548,3.562,39.9,2.864,14.566-.762,29.141-2,43.239-6.422,6.781-2.129,13.9-3.206,20.639-5.441a227.245,227.245,0,0,0,29.294-11.526c13.726-6.777,28.077-12.24,41.593-19.478,11.4-6.1,21.787-13.762,32.478-20.965,9.512-6.409,18.648-13.31,27.733-20.284,16.1-12.357,31.627-25.267,42.678-42.712,4.759-7.511,10.861-14.181,14.031-22.678.709-1.9,2.369-1.5,3.823-1.472,1.972.041,1.782,1.47,1.8,2.841.144,12.634-.367,25.3-3.367,37.547-2.073,8.458-2.28,17.038-3.679,25.516-2.691,16.3-3.265,33.124-7.59,48.945-4.6,16.809-10.471,33.482-19.71,48.736-5.225,8.627-9.642,17.674-16.265,25.446-9.856,11.568-21.605,21.1-32.783,31.245-12.428,11.283-26.167,20.917-39.544,30.989-4.855,3.655-10.407,6.451-15.828,9.28-20.53,10.712-41.524,20.081-63.919,26.61-18.6,5.424-37.532,7.051-56.511,7.876-15.339.667-30.769-.967-46.156-2.457-23.108-2.237-45.426-7.6-67.5-14.286-7.28-2.2-14.159-5.7-21.377-8.153-12.647-4.289-25.186-8.815-37.069-14.948-15.837-8.174-32.357-15-47.36-24.841-7.164-4.7-15.05-8.295-22.6-12.4-1.855-1.007-2.39-.12-2.377,1.612.007.833-.01,1.666-.01,2.5q-.025,145.5-.12,291c0,3.419,1.064,3.857,4.087,3.34,18.708-3.2,35.168-11.017,50.277-22.506,6.142-4.67,13.312-8.066,19.156-13.308.616-.553,1.381-.937,2.018-1.47,6.47-5.406,6.74-5.746,13.35-.363,17.181,13.992,36.643,23.868,57.164,31.609,13.737,5.183,27.979,9.024,41.972,13.536,13.7,4.418,27.814,3.816,41.866,3.3,8.933-.325,17.883-1.122,26.743-2.316,10.768-1.452,20.523-6.568,30.933-9.383,14.657-3.964,27.44-12.436,41.632-17.382,12.816-4.467,24.351-11.07,35.51-18.486,9.862-6.554,18.209-14.942,26.751-23.068a20.009,20.009,0,0,0,4.528-7.112c.568-1.385,1.354-2.39,2.874-2.263,1.947.163,1.484,1.926,1.681,3.113,1.34,8.07-.094,16.144-2.107,23.7-3.53,13.261-5.44,26.94-9.886,39.908-2.591,7.557-4.913,15.214-9.415,22.214-4.988,7.758-8.71,16.351-14.1,23.956-7.454,10.527-14.532,21.332-22.856,31.213-5.09,6.041-12.172,9.741-18.037,14.9-7.983,7.026-16.834,12.959-25.782,18.655-9.518,6.058-19.855,10.615-30.353,14.723-18.578,7.27-37.4,13.713-56.92,18.137a242.722,242.722,0,0,1-24.92,4.382c-12.466,1.486-24.789-.314-37-3.213-13.064-3.1-25.832-7.156-38.709-10.847-14.767-4.234-28.166-10.852-41.544-17.87-18.809-9.868-36.791-20.979-53.071-34.764-4.9-4.147-10.244-7.777-14.36-12.711-2.153,1.38-1.322,3.041-1.323,4.361q-.072,146-.092,292c0,3.444,1.135,4.6,4.492,6.242,11.75,5.733,24.487,8.081,36.887,10.984a230.667,230.667,0,0,0,45.2,6.4c17.894.575,35.722,2.985,53.614,3.861a295.4,295.4,0,0,0,61.48-3.468c6.65-1.069,13.355-2,20.037-3.07,9.038-1.439,17.768-4.263,26.3-6.994,17.221-5.508,34.787-9.894,51.836-15.862,12.183-4.264,23.4-10.857,34.884-16.717,19.4-9.894,36.838-22.7,54.051-35.975,10.771-8.309,22.158-15.834,31.926-25.37a382.484,382.484,0,0,0,41.786-47.546c7.643-10.444,14.16-21.779,22.456-31.716,8.195-9.816,11.1-22.137,17.182-32.918,2.89-5.122,6.885-9.764,8.1-15.789a2.163,2.163,0,0,1,1.349-1.376c.982-.223,1.349.75,1.625,1.49.464,1.245.808,2.534,1.2,3.8Z"></path>
        <path d="M1.815,351c2.039-8.876,1.581-18.088,3.457-26.956A97.791,97.791,0,0,1,15.681,296.88c8.933-16.132,18.264-32.121,31.782-44.792a176.31,176.31,0,0,1,39.219-27.5c21.91-11.447,45.44-17.362,69.381-21.889a126.554,126.554,0,0,1,19.732-2.013c13.716-.4,27.412-1.3,41.154-1.068,16.784.283,33.546,1.06,50.249,2.612,12.686,1.179,25.319,2.962,37.956,4.632,25.833,3.413,51.633,7.073,77.484,10.343,12.194,1.542,24.568,2.816,36.769,1.409,9.617-1.108,19.386-1.484,28.86-4.245,10.507-3.062,21.674-2.972,32.265-5.872,14.083-3.857,27.312-9.9,40.431-16.129,16.87-8.011,33.517-16.491,50.349-24.583,12.265-5.9,22.459-14.644,32.978-23.012,11.259-8.956,19.21-20.992,29.368-30.936,15.353-15.031,28.364-32.026,41.173-49.125,9.734-12.995,17.909-27.087,25.737-41.364,3.8-6.934,6.736-14.25,10.5-21.176,2.877-.776,3.738.983,3.51,3.237-.719,7.082-.525,14.179-1.936,21.283A260.591,260.591,0,0,1,698.57,73.252c-6.761,16.786-13.948,33.486-23.29,49.175-15.665,26.306-34.315,50.473-52.326,75.122-13.38,18.313-29.9,33.728-45.087,50.381-18.374,20.142-40.094,36.26-61.189,53.189-14.55,11.677-30.972,20.431-46.486,30.6-6.9,4.521-14.033,8.743-20.686,13.606-6.48,4.737-14.688,6.289-20.639,11.98a7.137,7.137,0,0,0-2.658,5.854q.171,65.241.137,130.483c-.015,74.822-.176,149.643-.08,224.464q.124,96.478.779,192.955c.065,9.472-.016,18.977.55,28.43.295,4.919-2.448,9.215-1.757,14.1.888,6.276,2.526,12.467,1.892,18.939-.234,2.383-.75,4.371-2.929,5.32-10.36,4.515-18.642,12.606-29.248,16.733-12.338,4.8-24.663,9.667-36.8,14.958-8.478,3.7-16.422,8.685-25.343,11.322-20.22,5.977-40.135,12.983-60.791,17.494-13.416,2.929-26.541,7.516-40.069,9.517-15.016,2.221-30.176,4.548-45.536,3.468-5.966-.42-11.978-.156-17.964-.357-20-.671-39.457-5.256-58.992-8.887-15.687-2.917-29.931-9.833-43.59-18.5A357.416,357.416,0,0,1,27.85,995.9c-7.394-6.208-12.577-14.578-18.611-22.093a6.968,6.968,0,0,1-1.515-5.44c3.241.339,5.191,2.777,7.509,4.406a222.5,222.5,0,0,0,49.132,25.962c18.24,6.936,37.242,9.43,56.565,9.709,11.119.16,22.25-.539,33.375-.846,11.072-.305,22.065-1.592,33.043-2.89,4.037-.477,7.92-2.125,11.937-2.916,24.186-4.757,46.688-14.436,68.953-24.43a193.142,193.142,0,0,0,45.1-27.876c6.986-5.844,14.476-11.089,21.791-16.533,2.883-2.145,4.061-4.7,4.051-8.449q-.332-116.232-.362-232.464c0-3.286-.451-4.915-4.34-4.36-15.246,2.175-30.029,5.9-44.024,12.432-8.934,4.168-15.105,11.786-22.381,18.039a57.893,57.893,0,0,0-17.522,25.594c-2.224,6.549-3.113,13.45-4.046,20.345-1.565,11.568-.093,22.711,2.9,33.832a8.63,8.63,0,0,0,3.309,5.284c.7.493,1.435,1.2.948,2.043-.612,1.066-1.753.786-2.65.335a20.079,20.079,0,0,1-6.179-4.134c-6.176-6.822-12.874-13.01-16.862-21.8-4.011-8.84-9.426-17.062-12.324-26.443-2.44-7.9-3.724-16.017-5.093-24.176-2.012-11.994.282-23.61,1.469-35.3a96.115,96.115,0,0,1,10.352-33.9c7.537-14.8,18.117-27.575,30.271-38.438,20.876-18.659,44.627-32.531,73.211-36.165,12.571-1.6,12.579-1.748,12.547-14.655q-.146-58.239-.337-116.478c-.157-40.31-.428-80.619-.513-120.929-.008-3.764-2.713-5.385-4.875-7.018-16.355-12.362-32.435-25.441-51.044-34.1-12.533-5.833-24.058-13.946-37.555-17.625a246.835,246.835,0,0,0-40.928-7.26,152.058,152.058,0,0,0-43.494,1.756c-21.34,4.087-42.518,9.213-60.2,22.992-9.126,7.11-19.894,12.509-26.2,22.714-7.275,11.775-13.552,24.072-14.019,38.375-.46,14.071.3,27.914,6.921,40.854,8.934,17.458,23.105,26.581,42.568,28.344,10.627.962,20.54.449,30.363-4.723,6.626-3.488,10.13-7.95,11.218-15.1,1.95-12.815,1.033-24.806-9.944-33.564a66.059,66.059,0,0,0-17.885-10.648,15.393,15.393,0,0,1-1.981-1.315,26.352,26.352,0,0,1,13.715-2.284c17.572,1.676,28.563,11.818,35.7,27.228,8.085,17.45,8.949,34.647-1.869,51.245-3.748,5.749-9.474,9.816-15.26,13.379-10.918,6.724-22.813,11.079-35.32,14.049-9.7,2.305-19.209.747-28.655-.622-9.261-1.342-18.664-2.578-27.544-5.724A76.6,76.6,0,0,1,23.09,425.332C12.657,410.516,8.121,393.711,4.5,376.515,2.733,368.162,1.042,359.676,1.815,351Z"></path>
        <path d="M766.114,888.783c0,26.638-.1,53.276.1,79.913.031,4.362-1.183,5.393-5.379,4.75-5.855-.9-10.8-4.188-16.456-5.539-4.348-1.04-8.564-2.669-12.937-3.551-2.484-.5-3.463-1.461-3.374-3.9.1-2.66.025-5.326.025-7.99q0-79.165,0-158.329c0-5.946.028-5.958,5.43-3.253,9.154,4.583,17.776,10.516,28.406,11.374,3.645.294,4.282,2.244,4.264,5.611C766.05,834.841,766.114,861.812,766.114,888.783Z"></path>
        <path d="M728.1,499.975V418.024c0-6.559,3.188-8.5,9.269-5.265,3.951,2.1,7.547,4.857,11.418,7.123,4.58,2.681,9.252,5.214,13.95,7.686,2.243,1.18,3.428,2.531,3.421,5.369Q766,496.9,766.1,560.861c0,1.906,0,3.751-1.935,4.748-6.791,3.488-11.447,9.576-17.291,14.225-4.835,3.847-10.414,5.738-15.954,7.945-2.061.82-2.771.108-2.809-1.856-.022-1.165-.016-2.331-.016-3.5Q728.1,541.2,728.1,499.975Z"></path>
        <path d="M514.839,1197.789a41.92,41.92,0,0,1,42.284,42.1c-.113,25.019-18.429,42.539-42.167,42.781a42.2,42.2,0,0,1-42.758-42.726C472.543,1216.227,491.07,1197.7,514.839,1197.789Z"></path>
        <path d="M496.091,66.195c23.7.087,42.146,18.817,42.273,42.59a42.291,42.291,0,0,1-42.641,42.324c-23.556-.133-42.265-18.161-42.325-42.654C453.336,83.189,474.753,65.442,496.091,66.195Z"></path>
    </g>
</svg>