<svg id="Layer_1" data-name="Layer 1" xmlns="http://www.w3.org/2000/svg" viewBox="0 0 676.18 676.19"><defs><style>.cls-1{fill:#fefefe;}.cls-2{fill:#bab8c6;}.cls-3{fill:#63607e;}</style></defs><title>cross</title><path class="cls-3" d="M701.09,594.93c-.79,5,1.45,9.8,1,14.82-.26,2.79-.08,5.63-.89,8.36.62,9.51-5.38,15.28-11.92,20.56-6.1,4.93-11.26,10.77-16.7,16.34-16.39,16.78-33.58,32.75-49.82,49.68-7.45,7.77-15.78,14.7-23.77,21.95a33.68,33.68,0,0,1-11,6.47c-7.85.47-15.67,1-23.47-1a18.75,18.75,0,0,1-7-3.46,311.54,311.54,0,0,1-34.81-31.85c-17.35-18.17-35.8-35.24-53.85-52.68-25.12-24.29-50.35-48.46-75-73.23-6.3-6.33-13.26-12-19.21-18.72-4.74-5.4-12.45-5.61-18.14-1.19a83.22,83.22,0,0,0-7.64,7.16C305.56,601.44,262.39,645,218.77,688c-12.68,12.51-24.93,25.45-37.7,37.86-4.82,4.68-10.25,7.46-17.28,7.52-4.23,0-8.48,1.23-12.8.8-.38-.31-.8-.94-1.14-.91-7.7.8-11.93-4.48-16.61-9.18q-37.71-37.85-75.56-75.57c-5.53-5.53-10.81-11.39-16.82-16.37-15.78-13.09-15.63-37.66-1.18-52.24,9-9.08,18.25-17.88,27.37-26.83,4.38-4.3,8.1-9.28,12.49-13.48,40.53-38.83,79.5-79.22,119.58-118.49a114.71,114.71,0,0,1,15-12.92c7.5-5.18,8.15-16.15,1-21.57-11.35-8.62-20.65-19.31-30.66-29.26C135.6,308.76,87,259.85,38.11,211.14A31.74,31.74,0,0,1,28.65,190c-1.21-8,.11-15.52,5.91-21.47,20.11-20.63,40.47-41,60.53-61.68q17.56-18.1,35.16-36.16c10.83-11.1,29.64-11.63,40.88-7.46,6.37,2.36,12.07,7,16.53,12.46C197.45,87.75,209.12,98,220,109q63.3,63.62,126.9,126.93c2.94,2.93,5.43,6.32,9.05,8.56,6.56,4.05,14.62,3.5,19.62-2.29C386.08,230,398.5,219.83,409.27,208c12.6-13.78,26.7-26,39.68-39.36,15.29-15.77,31.51-30.63,47.19-46,15-14.7,29.57-29.76,44.67-44.31,6-5.82,13.47-10,20-15.39,2.93-2.43,8.08-2.19,12.22-3.17,9.76.47,18.08,3,25.62,10.44,21.07,20.86,43.09,40.76,64.68,61.1,7.6,7.16,15.91,13.79,22.36,21.89,8.12,10.21,16.17,21,16.57,35a31.14,31.14,0,0,1-.88,5.76c.18,8.73-4.93,15-10.3,20.84C639.34,271.21,583.35,323.36,529.93,378c-2.32,2.38-5,4.4-7.4,6.71-7.36,7.08-7.6,18.57,0,25.39,16.2,14.63,30.61,31,46.5,46q22.2,20.88,43.41,42.81c23,23.83,46.53,47.21,70.11,70.51,5,5,10.84,9.07,14.49,15.49C698.85,588.17,699.32,591.78,701.09,594.93Z" transform="translate(-26.9 -58.91)"/></svg>