<svg class="hamburger" data-name="Layer 1" xmlns="http://www.w3.org/2000/svg" viewBox="0 0 958.21 898.24"><defs><style>.cls-1{fill:#5A5873;}.cls-2{fill:#65617f;}.cls-3{fill:#3b394c;}.cls-4{fill:#fefefe;}.cls-5{fill:#575670;}.cls-6{fill:#535368;}.cls-7{fill:#31303f;}.cls-8{fill:#c2c1cd;}.cls-9{fill:#b1b0bc;}.cls-10{fill:#b3b3be;}.cls-11{fill:#686771;}.cls-12{fill:#696873;}.cls-13{fill:#c3c2cc;}.cls-14{fill:#9c9ba6;}.cls-15{fill:#cecdd6;}.cls-16{fill:#716f7d;}.cls-17{fill:#666480;}.cls-18{fill:#48465D;}.cls-19{fill:#5b5a75;}.cls-20{fill:#5a5873;}.cls-21{fill:#686484;}.cls-22{fill:#747190;}.cls-23{fill:#7f7d9c;}.cls-24{fill:#53526b;}.cls-25{fill:#676582;}.cls-26{fill:#777593;}.cls-27{fill:#49485d;}.cls-28{fill:#64617f;}.cls-29{fill:#4C4A65;}</style></defs><title>hamburger</title><path class="cls-1" d="M1003,543v4a68.5,68.5,0,0,1-12.48,36c-12,17.2-28.37,27.51-48.87,31.46-22.8,3.53-43.34-1.29-61.09-16.49-11.58-9.92-19.77-22-23.74-36.81-1.13-4.22-3.06-5.88-7.6-5.86q-54.24.25-108.49,0c-4.25,0-6.05,1.1-6.64,5.72-2.47,19.11-13.6,32.55-29.45,42.42-29.13,18.13-71.4,16.12-98.53-4.69-12.52-9.59-20.81-22-23-37.86-.56-4.09-2.11-5.62-6.37-5.61-35.16.15-70.33.1-105.49,0-3.35,0-5.6.48-6.2,4.58-3.45,23.73-17.95,39.25-39,48.25-26.32,11.25-53.06,10.72-78.74-2.61-18.62-9.66-31.07-24.41-33.62-46-.48-4.06-2.92-4.19-5.95-4.19q-31.5,0-63,0c-15.16,0-30.33.16-45.49-.09-4.57-.07-6.81,1.26-8.1,5.87-5.92,21-19.17,36.21-38.2,46.58a13.88,13.88,0,0,1-3.94,1.12c-2.28.1-4.17-1-6-2.09-22.12-13.1-35.85-32.21-38.84-57.8-3.17-27.09,6.58-49.48,27.44-67.13,9.27-7.85,20.22-12,31.58-15.37a14.33,14.33,0,0,1,3-1.56c9-.74,17.93-.14,26.89-.36,7.63,0,15.25,0,22.87,0q10.5,0,21,0,10,0,20.07,0c50.66,0,101.34-.75,152,.18,93.46,1.71,186.94-.4,280.39,1,81,1.22,161.93.26,242.9.61a66.24,66.24,0,0,1,31.61,7.81,74.89,74.89,0,0,1,35.62,40.27c2.33,6,2.24,12.37,3.48,18.53v1A17.17,17.17,0,0,0,1003,543Z" transform="translate(-44.89 -15.89)"/><path class="cls-2" d="M918,914h-3c-2.06-1-4.26-.49-6.39-.49q-360.83,0-721.66,0c-1.86,0-3.73,0-5.59-.05-28.06-5.11-46.5-29.87-47.62-55-.86-19.27-.24-38.61-.15-57.92,0-6,1-6.74,7.07-6.93,6.81-.22,13.64.65,20.42-.6a10.67,10.67,0,0,1,3.78.08c3.12.82,6.3.47,9.45.47l761.16,0c3.33,0,6.67-.12,10,.14,2.26.5,4.58.86,6.8,1.53,12,3.65,19.84,11.63,20.66,24.19.94,14.57,2,29.38-.69,43.84-4.58,24.86-19.65,40.82-43.55,48.72C925.18,913.16,921.34,912.17,918,914Z" transform="translate(-44.89 -15.89)"/><path class="cls-3" d="M164,794.07l-3,0c-1.79.86-3.69.27-5.53.41-29-3.25-49.76-28.64-51.78-55.19a61,61,0,0,1,45.73-63.95c1.61-.4,3.24-.77,4.83-1.28a27.27,27.27,0,0,1,4.22-.48c2.13,0,4.26-.13,6.39,0q262.88.09,525.75,0c3.67,0,7.33-.05,11,0s5.67,2.45,7.9,4.69q40.44,40.42,80.78,80.94c2.72,2.75,3.85,2.58,6.42,0q40.09-40.41,80.45-80.57c2.22-2.22,4.27-4.77,7.8-5,18.55-.18,37.1-.06,55.64-.08a61.71,61.71,0,0,1,59.66,39.9c1.91,5,1.69,10.36,2.75,15.5v2a10.27,10.27,0,0,0,0,7v3c-1.5,18.84-10.7,33.21-26,43.77-9.48,6.55-19.94,10.54-31.78,9.71q-387.9,0-775.76,0C167.66,794.47,165.8,794.85,164,794.07Z" transform="translate(-44.89 -15.89)"/><path class="cls-5" d="M441.91,21.38a5,5,0,0,1,3.77-.51c1.7-.69,3.51-.13,5.23-.48a10,10,0,0,1,5.73-.53c1.72-.65,3.53-.14,5.27-.46a14.11,14.11,0,0,1,6.73-.54c1.71-.65,3.53-.14,5.27-.46a27.52,27.52,0,0,1,9.74-.53c2.72-.79,5.52-.06,8.26-.46.59-.63,1.87-.23,2.09-1.41h1c3.76,1.14,7.61.21,11.41.52h25.38c1.13,1.91,1.11,2.26-1.1,2.52-4.13.49-8.28.8-12.42,1.15a629.21,629.21,0,0,0-93.13,15.16c-34.31,8.14-67.69,19-99.82,33.59-36.47,16.56-70.4,37.22-100.45,63.83-27.45,24.3-50.08,52.5-66.08,85.7a226.19,226.19,0,0,0-21.6,78.59c-1.52,16.82-1,33.64-.63,50.43.25,11,5.71,19.71,16.65,23.95a14.74,14.74,0,0,1,4,1.91c1.32,1.05,1,1.91-.38,2.59-9,1-17.94.38-26.91.43-7.8,0-15.62.49-23.42-.33a8.42,8.42,0,0,1-1.66-1c-6.94-.51-13.62-1.78-19-6.72a20.75,20.75,0,0,0-3.29-3.2,22.91,22.91,0,0,1-6.73-18.78,307.48,307.48,0,0,1,0-32.7c-.81-17.89,2-35.34,6.36-52.59,8.72-34.36,24.79-65,47.24-92.32,4.2-5.12,8-10.55,13.14-14.86,1.49-1,2.35-2.5,3.39-3.87a30.81,30.81,0,0,1,8-8,60.57,60.57,0,0,0,7.85-7.42c11-10.58,23-19.81,35.5-28.51,44.22-30.87,93.1-51.69,144.79-66.14,15.52-4.33,31.3-7.91,47.14-10.87,13.29-2.48,26.61-5.08,40.14-6.2,2.39-.2,4.71-1.47,7.24-1C438.38,21.18,440.19,21.75,441.91,21.38Z" transform="translate(-44.89 -15.89)"/><path class="cls-6" d="M45,532c2-2.47,1.5-5.6,2.12-8.4,5.84-26.48,30.58-50.81,55.82-54.66,3.28,0,1.87-3.91,4-4.85a14.56,14.56,0,0,1,5.4-.69q22.38,0,44.77,0a17.39,17.39,0,0,1,4.93.48c2.17.66,3,1.94,1.92,4.12-15.23,3.14-28.43,10.19-39,21.57-20.06,21.68-25.56,50.5-15,77.58,6.6,16.92,18.21,29.37,33.57,38.59,1.68,1,3.4,2.14,5.48,2.27.21,2.16-1.37,3-3,3.42-6.44,1.51-12.64,4.26-19.45,4-4-.08-8.08,0-12.12,0a12.67,12.67,0,0,1-4.11-.5,12.67,12.67,0,0,0-7.38-1.63c-20.54-3.2-35.24-15-46.53-31.75a65.67,65.67,0,0,1-10.68-27.07c-1.09-6.45.53-13-.86-19.45Z" transform="translate(-44.89 -15.89)"/><path class="cls-7" d="M154,675c-9.58,3.13-19.14,6.27-27,13-13.25,11.29-21.1,25.35-21.92,42.92-.87,18.41,5.06,34.4,18.57,47,8.19,7.64,17.71,13.4,29.16,15.11a10.33,10.33,0,0,1,2.21.89,2.69,2.69,0,0,1-1.35.54c-17.68-.1-35.31,2-53,1C73.69,793.7,47.84,772.17,45,743v-1a45,45,0,0,0,0-15v-1a52.89,52.89,0,0,1,11.46-28.61c12.51-15.78,28.78-24.11,49.17-23.77.6,0,1.18,0,1.78,0,13.33,0,26.64,0,40,0C149.64,673.63,152.09,673.11,154,675Z" transform="translate(-44.89 -15.89)"/><path class="cls-8" d="M186,913.16c3.66-.06,7.33-.15,11-.15q356,0,711.92,0c2,0,4.31-1,6,1H186c-.28-.2-.36-.39-.26-.58S185.94,913.16,186,913.16Z" transform="translate(-44.89 -15.89)"/><path class="cls-9" d="M186,913.16c0,.28,0,.56,0,.84H128a2.72,2.72,0,0,1-.12-.8c1.27-1.66,3.16-1.78,5-1.74,16,.37,32.11-1.39,48.06,1.39Z" transform="translate(-44.89 -15.89)"/><path class="cls-10" d="M532.91,17.13,506,16.82c-.3-.2-.4-.38-.29-.56s.21-.26.32-.26h37a1.1,1.1,0,0,1-.43,1.55C539.3,18.69,536.05,19.16,532.91,17.13Z" transform="translate(-44.89 -15.89)"/><path class="cls-11" d="M47,555.07,45,555V535c2.11,2.79.6,6,1,9C46.41,547.65,45.18,551.49,47,555.07Z" transform="translate(-44.89 -15.89)"/><path class="cls-12" d="M45,727a23.69,23.69,0,0,1,0,15Z" transform="translate(-44.89 -15.89)"/><path class="cls-13" d="M506,16c0,.27,0,.55,0,.82-3.65-.33-7.45,1.33-11-.82Z" transform="translate(-44.89 -15.89)"/><path class="cls-14" d="M1003,543c-1.35-3-1.7-6,0-9Z" transform="translate(-44.89 -15.89)"/><path class="cls-15" d="M543.05,16.85c0-.28,0-.57,0-.85h7q0,.42.06.84Q546.57,19.87,543.05,16.85Z" transform="translate(-44.89 -15.89)"/><path class="cls-16" d="M1003,738a5.76,5.76,0,0,1,0-7Z" transform="translate(-44.89 -15.89)"/><path class="cls-17" d="M942.17,613.11c.26,20.3.54,40.6-.14,60.9-1.72.91-3.58.45-5.37.45-16.24,0-32.48,0-48.72,0-1.63,0-3.32-.38-4.88.44-1.48,1.33-3,2.6-4.42,4q-40.8,40.77-81.49,81.64c-2.91,2.94-4.34,3-7.29,0q-40.59-41-81.49-81.63c-1.41-1.4-2.94-2.68-4.41-4-2.08-.94-4.28-.45-6.41-.45q-263.1,0-526.21,0c-2,0-4,.09-6-.08-2.48-2-1.85-4.84-1.87-7.4-.08-15.62,0-31.24,0-46.87,0-6.69-.09-6.58-6.36-8.6-2.19-.71-5.78-.34-5.06-4.51a83,83,0,0,0,30.72-29.11c4-6.46,6.34-13.55,8.13-20.79.65-2.67,1.69-3.09,4-3.09q58.22.06,116.45,0c2.33,0,3.6.42,3.75,3.23.91,17.26,9.24,30.43,22.79,40.66,16.34,12.33,34.85,16.92,55.12,16.2,18-.63,34.23-5.52,48.5-16.72,12.92-10.14,20.85-23,22.47-39.48.3-3,1.2-3.92,4.17-3.92q56,.12,112,0c2.09,0,3.79-.08,4.06,2.93,2.3,25.1,17.23,41.14,39.19,50.32,26.27,11,52.93,10.06,78.27-3.68,16.5-8.94,27.69-22.44,31.32-41.43.49-2.57-1.19-6,1.14-7.55s5.83-.56,8.8-.56c36.15,0,72.3,0,108.45-.09,3.6,0,5.14.54,6.32,4.62,8.83,30.79,29.19,49.5,60.77,55.08A62.17,62.17,0,0,0,942.17,613.11Z" transform="translate(-44.89 -15.89)"/><path class="cls-18" d="M164,468c.18-3.91-2.73-3-4.85-3q-26.53-.06-53.08,0c-.73-.84-.55-1.88-.55-2.86q0-41.86,0-83.74a5.79,5.79,0,0,1,.34-2.44c7.45-1,14.94-.18,22.4-.45,10.79-.39,21.62.83,32.39-.74,3.31-.49,5.46,1,5.79,4.57.13,1.33.18,2.66.18,4q0,37.73,0,75.46a17.27,17.27,0,0,1-.52,5.45,6,6,0,0,1-1.07,1.7A2.19,2.19,0,0,1,164,468Z" transform="translate(-44.89 -15.89)"/><path class="cls-19" d="M152,607c1.69,3.75,5.6,3.24,8.5,3.69,3.76.59,4.56,2.17,4.54,5.53C165,635.49,165,654.73,165,674a2.2,2.2,0,0,1-.92.94l-6,0c-4.75-1.07-9.56-.38-14.33-.44-10.95-.12-21.89-.06-32.84,0-1.61,0-3.32-.49-4.83.53l-1.29-.23c.92-1.89.57-3.92.57-5.89,0-16.63,0-33.25,0-49.87,0-2,.29-4,.45-5.93,1.74-1.44,2.85.32,4.2.84l4,.08A36.85,36.85,0,0,0,127,614c7.71-.67,15.32-1.73,22.05-6Z" transform="translate(-44.89 -15.89)"/><path class="cls-20" d="M165,465.94c0-.29,0-.59,0-.89a4,4,0,0,1,2.14-1.19c8.43-.44,16.86-1.23,25.24.46a1.21,1.21,0,0,1,.62,1.61Z" transform="translate(-44.89 -15.89)"/><path class="cls-21" d="M193,465.93c0-.29,0-.57,0-.85,1.68-1.82,3.94-1.66,6.05-1.58,5.44.21,10.94-.87,16.31.81a1.21,1.21,0,0,1,.64,1.58Z" transform="translate(-44.89 -15.89)"/><path class="cls-22" d="M216,465.89q0-.39,0-.78c6.67-3,13.51-1.74,20.34-.81a1.2,1.2,0,0,1,.66,1.56Z" transform="translate(-44.89 -15.89)"/><path class="cls-23" d="M237,465.86q0-.36,0-.72a26.14,26.14,0,0,1,20-.09,2.84,2.84,0,0,0,0,.92Z" transform="translate(-44.89 -15.89)"/><path class="cls-24" d="M180.9,912.85q-24,.06-48.08.15c-1.65,0-3.3.13-4.94.2-9.58-1.81-18.63-4.77-26.66-10.64C85,890.71,76.25,875,75.68,854.89c-.3-10.3.42-20.64-.17-30.91-.79-13.6,8.65-26.76,22.47-28.46.89-.11.86-.87,1-1.5l56-.1,6,.13c-6.14,2-12.46.65-18.68.89-8.05.3-7.32-.82-7.33,7.16q0,26.45,0,52.89c0,26.73,18.54,50.38,44.66,57.1A4.76,4.76,0,0,1,180.9,912.85Z" transform="translate(-44.89 -15.89)"/><path class="cls-25" d="M947.06,794a4.54,4.54,0,0,1-.14,1q-388.35,0-776.7,0c-2.05,0-4.34.9-6.18-.89,1.67,0,3.33-.07,5-.07H944.56Z" transform="translate(-44.89 -15.89)"/><path class="cls-26" d="M164.07,674.92,165,674q266.39,0,532.77.06c2.07,0,4.36-.84,6.2.92L288,675Q226.06,675,164.07,674.92Z" transform="translate(-44.89 -15.89)"/><path class="cls-26" d="M883.06,674.94c1.5-1.59,3.44-.9,5.18-.91q26.89-.07,53.79,0a2.66,2.66,0,0,1,.16.84Z" transform="translate(-44.89 -15.89)"/><path class="cls-27" d="M106,675c.92-1.32,2.32-1,3.62-1h44.7c1.3,0,2.68-.24,3.68,1L154,675Z" transform="translate(-44.89 -15.89)"/><path class="cls-28" d="M543.05,16.85h7c7.48,1.94,15.18,1.06,22.76,1.67,20.91,1.7,41.73,3.79,62.48,7a656.42,656.42,0,0,1,66.9,14.1c24.64,6.49,48.48,15.18,72,25,25.46,10.65,49.3,24.18,72.23,39.33a319.25,319.25,0,0,1,33.22,25.65,309.93,309.93,0,0,1,32.58,32.85,271.23,271.23,0,0,1,31.34,44.78,238,238,0,0,1,23.09,60.51,209.8,209.8,0,0,1,5.55,49.61c-.05,10.95.82,21.91-.77,32.87-2.08,14.37-13.21,23.14-27.08,24-.82.06-1.67-.06-2.27.7-1.39,1.5-3.26,1.52-5.08,1.61-2,.11-4,.06-6,.06q-377.86,0-755.74.05c-5.83,0-11.5-1.09-17.23-1.73-1.4-1.33-3.3-1.45-5-2.07a28.29,28.29,0,0,1-18-25.73c0-14.16-.51-28.33.13-42.46a219.71,219.71,0,0,1,7.67-47.4c8-29.73,22-56.53,40.2-81.21a293.39,293.39,0,0,1,21.23-25,317.43,317.43,0,0,1,58.9-49.39,450.92,450.92,0,0,1,71-38c31.26-13.37,63.51-23.32,96.52-31a600.26,600.26,0,0,1,60-10.74c13.46-1.73,26.89-3.52,40.47-4,.59,0,1.16-.52,1.74-.8Z" transform="translate(-44.89 -15.89)"/><path class="cls-29" d="M158,375c4,0,8,.1,12,.1H936.08c2,0,4-.06,6-.09,1.41,1.77.78,3.85.78,5.79,0,26-.1,52,.15,78,0,4.82-.85,6.28-6.08,6.28q-336.69-.24-673.37-.13c-2.17,0-4.33.11-6.49.16l-20,.09-21,0-23,0-28,0c0-27.82-.11-55.64.06-83.47,0-4.25-.89-5.76-5.47-5.69-17.83.28-35.66.12-53.48.13-.38-.21-.51-.42-.4-.65s.23-.35.35-.35Z" transform="translate(-44.89 -15.89)"/><path class="cls-28" d="M106.09,375c0,.33,0,.66,0,1q0,44.49-.07,89c-.14,2,.29,4.52-3.13,3.94,1.79-1,2.09-2.52,2.08-4.5q-.13-44.68-.13-89.39Z" transform="translate(-44.89 -15.89)"/><path class="cls-28" d="M75.87,313.65v32.7A231.74,231.74,0,0,1,75.87,313.65Z" transform="translate(-44.89 -15.89)"/><path class="cls-28" d="M161.87,134.59c-1.75,3.39-4,6.24-7.85,7.42Z" transform="translate(-44.89 -15.89)"/><path class="cls-28" d="M491.91,17.41c-2.69,1.3-5.49.5-8.26.46C486.36,16.92,489.16,17.61,491.91,17.41Z" transform="translate(-44.89 -15.89)"/><path class="cls-28" d="M146,150a3.81,3.81,0,0,1-3.38,3.87Z" transform="translate(-44.89 -15.89)"/><path class="cls-28" d="M473.91,18.4c-1.66,1.18-3.49.55-5.27.46Z" transform="translate(-44.89 -15.89)"/><path class="cls-28" d="M461.91,19.4c-1.66,1.18-3.49.55-5.27.46Z" transform="translate(-44.89 -15.89)"/><path class="cls-28" d="M82.6,365.13a3.67,3.67,0,0,1,3.29,3.2Z" transform="translate(-44.89 -15.89)"/><path class="cls-28" d="M441.91,21.38c-1.64,1.21-3.46.57-5.23.49Z" transform="translate(-44.89 -15.89)"/><path class="cls-28" d="M450.91,20.39c-1.65,1.19-3.46.56-5.23.48Z" transform="translate(-44.89 -15.89)"/><path class="cls-3" d="M127,614A18.21,18.21,0,0,1,114,614Z" transform="translate(-44.89 -15.89)"/><path class="cls-3" d="M110,614l-4.2-.84c-.88-.5-2.19.08-2.78-1.13C105.46,612.25,108.34,611,110,614Z" transform="translate(-44.89 -15.89)"/></svg>